<svg xmlns="http://www.w3.org/2000/svg" xmlns:xlink="http://www.w3.org/1999/xlink" width="90.138" height="84.129" viewBox="0 0 90.138 84.129">
  <defs>
    <linearGradient id="linear-gradient" x1="1" y1="-0.258" x2="1.204" y2="1.186" gradientUnits="objectBoundingBox">
      <stop offset="0" stop-color="#fc6681"/>
      <stop offset="1" stop-color="#fc6681"/>
    </linearGradient>
  </defs>
  <g id="brand" transform="translate(0 -16)">
    <g id="Groupe_95" data-name="Groupe 95" transform="translate(0 16)">
      <g id="Groupe_94" data-name="Groupe 94" transform="translate(0 0)">
        <path id="Tracé_495" data-name="Tracé 495" d="M85.631,56.562V23.512A7.52,7.52,0,0,0,78.12,16h-66.1a7.52,7.52,0,0,0-7.512,7.512V46.046A4.512,4.512,0,0,0,0,50.553V95.622a4.512,4.512,0,0,0,4.507,4.507H37.558a4.512,4.512,0,0,0,4.507-4.507H54.655A4.506,4.506,0,0,0,59,89.93L56.049,79.1H64.6V95.622a4.512,4.512,0,0,0,4.507,4.507H85.631a4.512,4.512,0,0,0,4.507-4.507V61.069A4.512,4.512,0,0,0,85.631,56.562ZM39.06,95.622a1.5,1.5,0,0,1-1.5,1.5H4.507a1.5,1.5,0,0,1-1.5-1.5v-3H39.06Zm0-6.009H3V56.562H39.06Zm0-36.055H3v-3a1.5,1.5,0,0,1,1.5-1.5H37.558a1.5,1.5,0,0,1,1.5,1.5ZM56.105,90.72a1.5,1.5,0,0,1-1.45,1.9H42.064v-3H55.8ZM42.064,86.608V79.1H52.935l2.049,7.512ZM64.6,76.092H42.064V67.078H64.6Zm0-15.023v3H42.064V50.553a4.512,4.512,0,0,0-4.507-4.507H7.512V23.512A4.512,4.512,0,0,1,12.018,19h66.1a4.512,4.512,0,0,1,4.507,4.507V56.562H69.106A4.512,4.512,0,0,0,64.6,61.069ZM87.134,95.622a1.5,1.5,0,0,1-1.5,1.5H69.106a1.5,1.5,0,0,1-1.5-1.5v-3h19.53Zm0-6.009H67.6V67.078h19.53Zm0-25.539H67.6v-3a1.5,1.5,0,0,1,1.5-1.5H85.631a1.5,1.5,0,0,1,1.5,1.5Z" transform="translate(0 -16)" fill="url(#linear-gradient)"/>
      </g>
    </g>
    <g id="Groupe_97" data-name="Groupe 97" transform="translate(7.951 72.024)">
      <g id="Groupe_96" data-name="Groupe 96">
        <rect id="Rectangle_28" data-name="Rectangle 28" width="8.499" height="3.005" transform="translate(0 6.009) rotate(-45)" fill="url(#linear-gradient)"/>
      </g>
    </g>
    <g id="Groupe_99" data-name="Groupe 99" transform="translate(13.96 64.512)">
      <g id="Groupe_98" data-name="Groupe 98" transform="translate(0 0)">
        <rect id="Rectangle_29" data-name="Rectangle 29" width="25.495" height="3.005" transform="translate(0 18.028) rotate(-45)" fill="url(#linear-gradient)"/>
      </g>
    </g>
    <g id="Groupe_101" data-name="Groupe 101" transform="translate(16.964 60.008)">
      <g id="Groupe_100" data-name="Groupe 100">
        <rect id="Rectangle_30" data-name="Rectangle 30" width="12.747" height="3.005" transform="translate(0 9.013) rotate(-45)" fill="url(#linear-gradient)"/>
      </g>
    </g>
    <g id="Groupe_103" data-name="Groupe 103" transform="translate(71.045 70.525)">
      <g id="Groupe_102" data-name="Groupe 102">
        <rect id="Rectangle_31" data-name="Rectangle 31" width="10.621" height="3.005" transform="translate(0 7.51) rotate(-45)" fill="url(#linear-gradient)"/>
      </g>
    </g>
    <g id="Groupe_105" data-name="Groupe 105" transform="translate(74.049 76.541)">
      <g id="Groupe_104" data-name="Groupe 104" transform="translate(0 0)">
        <rect id="Rectangle_32" data-name="Rectangle 32" width="10.621" height="3.005" transform="translate(0 7.51) rotate(-45)" fill="url(#linear-gradient)"/>
      </g>
    </g>
    <g id="Groupe_107" data-name="Groupe 107" transform="translate(39.498 32.966)">
      <g id="Groupe_106" data-name="Groupe 106">
        <rect id="Rectangle_33" data-name="Rectangle 33" width="12.747" height="3.005" transform="translate(0 9.013) rotate(-45)" fill="url(#linear-gradient)"/>
      </g>
    </g>
    <g id="Groupe_109" data-name="Groupe 109" transform="translate(53.02 29.962)">
      <g id="Groupe_108" data-name="Groupe 108">
        <rect id="Rectangle_34" data-name="Rectangle 34" width="12.747" height="3.005" transform="translate(0 9.013) rotate(-45)" fill="url(#linear-gradient)"/>
      </g>
    </g>
    <g id="Groupe_111" data-name="Groupe 111" transform="translate(44.005 41.981)">
      <g id="Groupe_110" data-name="Groupe 110">
        <rect id="Rectangle_35" data-name="Rectangle 35" width="8.499" height="3.005" transform="translate(0 6.009) rotate(-45)" fill="url(#linear-gradient)"/>
      </g>
    </g>
    <g id="Groupe_113" data-name="Groupe 113" transform="translate(51.508 23.956)">
      <g id="Groupe_112" data-name="Groupe 112">
        <rect id="Rectangle_36" data-name="Rectangle 36" width="8.52" height="3.005" transform="translate(0 6.024) rotate(-45)" fill="url(#linear-gradient)"/>
      </g>
    </g>
    <g id="Groupe_115" data-name="Groupe 115" transform="translate(10.516 22.009)">
      <g id="Groupe_114" data-name="Groupe 114">
        <rect id="Rectangle_37" data-name="Rectangle 37" width="3.005" height="3.005" fill="url(#linear-gradient)"/>
      </g>
    </g>
    <g id="Groupe_117" data-name="Groupe 117" transform="translate(16.525 22.009)">
      <g id="Groupe_116" data-name="Groupe 116">
        <rect id="Rectangle_38" data-name="Rectangle 38" width="3.005" height="3.005" fill="url(#linear-gradient)"/>
      </g>
    </g>
    <g id="Groupe_119" data-name="Groupe 119" transform="translate(22.535 22.009)">
      <g id="Groupe_118" data-name="Groupe 118">
        <rect id="Rectangle_39" data-name="Rectangle 39" width="3.005" height="3.005" fill="url(#linear-gradient)"/>
      </g>
    </g>
  </g>
</svg>
